<?xml version="1.0" standalone="yes"?>
<svg xmlns="http://www.w3.org/2000/svg" width="300" height="300">
<path style="fill:#ffffff; stroke:none;" d="M0 0L0 300L300 300L300 0L0 0z"/>
<path style="fill:#020205; stroke:none;" d="M115 4C114.52 27.2662 105.743 49.5248 109.084 73.0394C110.571 83.5036 114.742 96.1766 125 101C120.308 103.035 115.285 104.462 110.961 107.283C98.0874 115.683 88.465 128.547 78.4853 140C67.5213 152.583 57.3324 164.354 56.0895 182C55.4033 191.742 56.4889 201.705 59.5185 211C60.9938 215.526 65.2563 221.355 65.4182 226C65.5305 229.222 62.6383 232.299 61.1937 235C58.9838 239.132 58.0859 243.397 57.4282 248C55.8323 259.17 59.9988 270.743 60 282C73.9161 278.781 89.9756 271.384 98 259C102.439 260.56 105.062 263.661 109 266C109.978 280.292 125.002 292.759 138 296C141.098 288.707 141.02 280.757 142 273C157.568 272.44 172.57 270.717 186 261.921C194.969 256.046 202.371 247.512 209.985 240.039C219.525 230.676 228.494 221.924 232.921 209C243.219 178.942 232.046 141.782 209.996 120.015C202.026 112.147 191.311 103.948 180 102C185.787 99.0555 191.981 98.5844 198.004 96.4483C207.424 93.1073 215.22 86.1631 220.667 78C223.236 74.1499 226.006 70.7206 226 66C231.822 62.8168 236.244 55.273 240.855 50.4244C242.448 48.7497 244.728 45.8962 242.377 43.7724C240.768 42.3182 237.95 42.9164 236 42.9653C229.93 43.1174 224.115 43.0919 218.09 43.9113C196.603 46.8329 169.877 49.413 154 66C150.702 56.2342 146.418 47.3188 140.241 39C131.415 27.114 122.16 18.6552 118 4L115 4z"/>
<path style="fill:#4e8f15; stroke:none;" d="M117 23C116.614 41.7045 111.198 61.7765 117.912 80C120.859 87.9978 124.87 96.158 134 98C130.497 84.5101 121.485 65.0702 134 53C134 65.8922 133.559 78.353 136.425 91C137.641 96.3663 142.524 102.678 148.397 97.142C151.977 93.7664 150.296 81.5032 149.711 77C147.628 60.9696 139.654 48.9582 129.428 37C125.389 32.2765 121.942 26.7907 117 23z"/>
<path style="fill:#447717; stroke:none;" d="M114 47C114 60.917 113.644 72.9419 119 86C120.194 81.6491 116.881 76.3806 115.888 72C114.085 64.0454 117.118 54.4304 114 47z"/>
<path style="fill:#214463; stroke:none;" d="M227 49C228.769 49.7789 230.036 49.9124 232 50C230.231 49.2211 228.964 49.0876 227 49z"/>
<path style="fill:#447717; stroke:none;" d="M216 50C219.618 52.6982 223.712 51.1841 228 51C224.303 49.4485 219.983 50 216 50z"/>
<path style="fill:#4e8f15; stroke:none;" d="M232 50C227.991 50.3168 224.018 51.4329 220 51.544C215.953 51.6559 212.077 50.7613 208 51.2894C192.925 53.2416 179.179 57.9898 165.91 64.8835C162.355 66.731 158.023 67.4234 155.774 71.1744C153.294 75.3101 155.967 85.1121 156.001 90C156.014 91.992 155.699 94.7185 157.028 96.3966C158.583 98.36 161.791 97.9849 164 97.9992C170.997 98.0448 174.677 95.5159 181.039 93.7191C187.414 91.9186 193.588 92.2185 199.715 89.0471C210.329 83.5522 215.892 73.6397 222.333 64C225.485 59.283 229.174 54.9125 232 50z"/>
<path style="fill:#214463; stroke:none;" d="M132.667 53.3333C132.222 53.7778 133.278 53.7222 133.333 53.6667C133.778 53.2222 132.722 53.2777 132.667 53.3333z"/>
<path style="fill:#447717; stroke:none;" d="M129 60C127.752 69.8748 127.487 79.2864 130 89C131.832 84.3058 129.234 78.9231 129.04 74C128.858 69.3644 130.769 64.3383 129 60M163 65C165.462 65.6968 166.665 65.1104 169 64C166.726 63.5913 165.219 64.2117 163 65z"/>
<path style="fill:#214463; stroke:none;" d="M133 64L133 67C133.696 65.4463 133.696 65.5537 133 64z"/>
<path style="fill:#447717; stroke:none;" d="M133 67L133 75C134.161 72.2302 134.161 69.7699 133 67M200 72C201.506 72.683 202.315 72.8259 204 73C202.494 72.317 201.685 72.1741 200 72z"/>
<path style="fill:#214463; stroke:none;" d="M197 73L201 76C202.924 74.9988 203.098 74.9225 204 73L197 73z"/>
<path style="fill:#020205; stroke:none;" d="M163 91C172.437 90.5104 181.47 83.9352 190 80.1782C193.975 78.4274 198.52 77.7426 201 74C190.768 74.0293 182.105 78.9322 173 83.1636C168.765 85.1317 164.486 86.2781 163 91z"/>
<path style="fill:#447717; stroke:none;" d="M199.667 76.3333C199.222 76.7778 200.278 76.7222 200.333 76.6667C200.778 76.2222 199.722 76.2778 199.667 76.3333z"/>
<path style="fill:#214463; stroke:none;" d="M193.667 78.3333C193.222 78.7778 194.278 78.7222 194.333 78.6667C194.778 78.2222 193.722 78.2778 193.667 78.3333z"/>
<path style="fill:#447717; stroke:none;" d="M191.667 79.3333C191.222 79.7778 192.278 79.7222 192.333 79.6667C192.778 79.2222 191.722 79.2778 191.667 79.3333M189.667 80.3333C189.222 80.7778 190.278 80.7222 190.333 80.6667C190.778 80.2222 189.722 80.2777 189.667 80.3333M186.667 81.3333C186.222 81.7778 187.278 81.7222 187.333 81.6667C187.778 81.2222 186.722 81.2777 186.667 81.3333z"/>
<path style="fill:#214463; stroke:none;" d="M150 85L150 93C151.161 90.2302 151.161 87.7699 150 85z"/>
<path style="fill:#447717; stroke:none;" d="M167.667 85.3333C167.222 85.7778 168.278 85.7222 168.333 85.6667C168.778 85.2222 167.722 85.2778 167.667 85.3333M201.667 87.3333C201.222 87.7778 202.278 87.7222 202.333 87.6667C202.778 87.2223 201.722 87.2777 201.667 87.3333M177 96L187 94C183.516 92.5789 179.425 93.0019 177 96M133.333 95.6667C133.278 95.7222 133.222 96.7778 133.667 96.3333C133.722 96.2778 133.778 95.2222 133.333 95.6667z"/>
<path style="fill:#214463; stroke:none;" d="M146.667 98.3333C146.222 98.7778 147.278 98.7222 147.333 98.6667C147.778 98.2222 146.722 98.2778 146.667 98.3333M158 98C159.248 98.6848 159.548 98.7488 161 99C159.752 98.3152 159.452 98.2512 158 98z"/>
<path style="fill:#ffffff; stroke:none;" d="M179 100L180 101L179 100z"/>
<path style="fill:#214463; stroke:none;" d="M136 105C139.959 106.661 144.74 106 149 106L172 106C168.041 104.339 163.26 105 159 105L136 105M130 106C131.248 106.685 131.549 106.749 133 107C131.752 106.315 131.452 106.251 130 106z"/>
<path style="fill:#3b69cb; stroke:none;" d="M133 106L134 107L133 106z"/>
<path style="fill:#57abfd; stroke:none;" d="M227 203C228.646 201.551 228.453 201.208 228 199C230.955 196.418 230 191.707 230 188C230 178.172 228.081 168.441 225.279 159C218.797 137.161 200.572 114.194 178 107.44C171.501 105.495 164.704 106 158 106C150.735 106 143.235 105.47 136 106.17C116.403 108.066 105.606 121.444 92.9753 135C82.1778 146.589 69.017 157.969 65.2361 174C58.165 203.981 72.8638 228.079 95 247.13C103.476 254.425 112.882 262.05 124 264.761C139.757 268.603 161.499 266.985 176 259.627C184.505 255.311 191.333 248.667 198 242C206.563 233.437 217.28 225.792 223.201 215C225.282 211.207 227.352 207.328 227 203z"/>
<path style="fill:#214463; stroke:none;" d="M174.667 106.333C174.222 106.778 175.278 106.722 175.333 106.667C175.778 106.222 174.722 106.278 174.667 106.333M127 107L128 108L127 107M178 107L179 108L178 107M124 108L125 109L124 108M186 111L187 112L186 111M113 114L114 115L113 114M191 114L192 115L191 114z"/>
<path style="fill:#294093; stroke:none;" d="M134 115L135 116L134 115z"/>
<path style="fill:#020205; stroke:none;" d="M135 115.454C120.02 117.489 110.859 129.488 101.081 139.711C92.718 148.454 82.9609 155.427 76.6088 166C66.9233 182.122 70.2658 205.049 82.3009 218.996C89.872 227.77 100.769 233.775 110 240.63C122.558 249.955 135.34 260.761 152 258.714C167.074 256.861 177.841 249.099 189 239.424C199.596 230.237 212.051 222.147 217.981 208.996C221.367 201.489 222.013 193.124 222 185C221.955 155.897 206.152 129.359 179 117.44C169.004 113.052 161.968 117.658 152 117.659C146.207 117.659 140.842 114.661 135 115.454z"/>
<path style="fill:#214463; stroke:none;" d="M140 115L141 116L140 115M110 116L111 117L110 116M144 116L145 117L144 116M159 116L160 117L159 116z"/>
<path style="fill:#3b69cb; stroke:none;" d="M176 116L177 117L176 116z"/>
<path style="fill:#214463; stroke:none;" d="M194 116L195 117L194 116M109 117L110 118L109 117M149.667 117.333C149.222 117.778 150.278 117.722 150.333 117.667C150.778 117.222 149.722 117.278 149.667 117.333z"/>
<path style="fill:#3b69cb; stroke:none;" d="M151 117C152.506 117.683 153.315 117.826 155 118C153.494 117.317 152.685 117.174 151 117z"/>
<path style="fill:#214463; stroke:none;" d="M108 118L109 119L108 118M197 118L198 119L197 118M107 119L108 120L107 119z"/>
<path style="fill:#3b69cb; stroke:none;" d="M122 119L123 120L122 119z"/>
<path style="fill:#214463; stroke:none;" d="M198 119L199 120L198 119M106 120L107 121L106 120z"/>
<path style="fill:#3b69cb; stroke:none;" d="M184 120L185 121L184 120z"/>
<path style="fill:#214463; stroke:none;" d="M105 121L106 122L105 121z"/>
<path style="fill:#3b69cb; stroke:none;" d="M179 237C170.866 234.663 162.679 239.256 155 241.653C145.711 244.551 138.132 245.038 129 242C135.412 235.039 140.818 228.174 150 224.796C156.153 222.533 162.65 220.745 169 219.127C173.043 218.097 177.558 217.402 180.812 214.581C189.94 206.668 184.159 191.688 193.109 184.434C198.364 180.175 203.116 184.194 207.995 186.735C210.131 187.848 212.749 188.703 213.682 185.756C214.934 181.803 213.215 177.013 213.039 173C212.121 152.056 197.572 130.043 177 122.836C168.324 119.796 160.678 123.402 152 123.907C145.589 124.28 139.394 121.209 133 122.33C122.821 124.115 114.875 135.124 108 142C105.274 144.726 101.579 147.531 99.7778 151C97.2221 155.921 102.542 160.758 101.157 165.985C99.4083 172.583 92.7348 177.427 90.2323 184C88.0824 189.647 86.6554 197.209 89.0856 203C91.1076 207.818 95.1196 211.475 97.6366 216C99.5973 219.525 99.1309 224.409 101.603 227.482C105.19 231.941 112.258 235.257 117 238.424C122.824 242.314 128.377 247.086 135 249.605C149.854 255.254 170.309 250.847 179 237z"/>
<path style="fill:#214463; stroke:none;" d="M104 122L105 123L104 122z"/>
<path style="fill:#3b69cb; stroke:none;" d="M118 122L119 123L118 122z"/>
<path style="fill:#214463; stroke:none;" d="M159.667 122.333C159.222 122.778 160.278 122.722 160.333 122.667C160.778 122.222 159.722 122.278 159.667 122.333M103 123L104 124L103 123M203 123L204 124L203 123M102 124L103 125L102 124M204 124L205 125L204 124M101 125L102 126L101 125M125 125L126 126L125 125M100 126L101 127L100 126M124 126L125 127L124 126M99 127L100 128L99 127z"/>
<path style="fill:#3b69cb; stroke:none;" d="M111 129L112 130L111 129z"/>
<path style="fill:#214463; stroke:none;" d="M120 129L121 130L120 129M208 129L209 130L208 129M119 130L120 131L119 130M209 130L210 131L209 130M96 131L97 132L96 131M118 131L119 132L118 131z"/>
<path style="fill:#3b69cb; stroke:none;" d="M199 131L200 132L199 131z"/>
<path style="fill:#214463; stroke:none;" d="M210 131L211 132L210 131M95 132L96 133L95 132M117 132L118 133L117 132M94 133L95 134L94 133M93 134L94 135L93 134M194 134L195 135L194 134M92 135L93 136L92 135M213 135L214 136L213 135M214 136L215 137L214 136z"/>
<path style="fill:#ffffff; stroke:none;" d="M103 137L104 138L103 137z"/>
<path style="fill:#3b69cb; stroke:none;" d="M205 137L206 138L205 137z"/>
<path style="fill:#ffffff; stroke:none;" d="M102 138L103 139L102 138M101 139L102 140L101 139z"/>
<path style="fill:#214463; stroke:none;" d="M216 139L217 140L216 139z"/>
<path style="fill:#ffffff; stroke:none;" d="M100 140L101 141L100 140z"/>
<path style="fill:#214463; stroke:none;" d="M207 140L208 141L207 140M87 141L88 142L87 141M86 142L87 143L86 142M98 142L99 143L98 142z"/>
<path style="fill:#3b69cb; stroke:none;" d="M209 142L210 143L209 142z"/>
<path style="fill:#214463; stroke:none;" d="M85 143L86 144L85 143M97 143L98 144L97 143M84 144L85 145L84 144z"/>
<path style="fill:#ffffff; stroke:none;" d="M96 144L97 145L96 144z"/>
<path style="fill:#214463; stroke:none;" d="M83 145L84 146L83 145z"/>
<path style="fill:#294093; stroke:none;" d="M203 145L204 146L203 145z"/>
<path style="fill:#214463; stroke:none;" d="M82 146L83 147L82 146z"/>
<path style="fill:#ffffff; stroke:none;" d="M94 146L95 147L94 146z"/>
<path style="fill:#214463; stroke:none;" d="M204 146L205 147L204 146M81 147L82 148L81 147z"/>
<path style="fill:#3b69cb; stroke:none;" d="M212 147L213 148L212 147z"/>
<path style="fill:#214463; stroke:none;" d="M80 148L81 149L80 148M79 149L80 150L79 149M78 150L79 151L78 150M99 150L100 151L99 150M77 151L78 152L77 151z"/>
<path style="fill:#3b69cb; stroke:none;" d="M88 151L89 152L88 151z"/>
<path style="fill:#214463; stroke:none;" d="M98 151L99 152L98 151M214 151L215 152L214 151M97 152L98 153L97 152M86 153L87 154L86 153z"/>
<path style="fill:#294093; stroke:none;" d="M100 225C99.7214 213.152 87.6737 206.703 88.0432 195C88.245 188.608 90.8173 182.207 94.4421 177.004C96.9097 173.462 100.49 170.351 101.452 165.985C102.457 161.427 99.9258 157.335 99 153C94.1969 154.866 91.3125 158.183 87.9537 162.001C70.6518 181.668 74.6898 213.937 100 225z"/>
<path style="fill:#3b69cb; stroke:none;" d="M223 153L224 154L223 153M85 154L86 155L85 154z"/>
<path style="fill:#214463; stroke:none;" d="M94.6667 154.333C94.2222 154.778 95.2778 154.722 95.3333 154.667C95.7777 154.222 94.7222 154.278 94.6667 154.333z"/>
<path style="fill:#3b69cb; stroke:none;" d="M217 154L218 155L217 154z"/>
<path style="fill:#214463; stroke:none;" d="M74 155L75 156L74 155z"/>
<path style="fill:#3b69cb; stroke:none;" d="M84 155L85 156L84 155z"/>
<path style="fill:#214463; stroke:none;" d="M217.333 155.667C217.278 155.722 217.222 156.778 217.667 156.333C217.722 156.278 217.778 155.222 217.333 155.667z"/>
<path style="fill:#3b69cb; stroke:none;" d="M83 156L84 157L83 156M224 156L225 157L224 156M82 157L83 158L82 157M218 157L219 158L218 157z"/>
<path style="fill:#214463; stroke:none;" d="M90 158C89.0143 159.479 89 159.203 89 161C90.2892 159.557 90.4009 159.766 90 158M218 158C218.307 160.123 218.382 160.686 220 162C219.404 160.44 218.911 159.377 218 158z"/>
<path style="fill:#3b69cb; stroke:none;" d="M225.333 158.667C225.278 158.722 225.222 159.778 225.667 159.333C225.722 159.278 225.778 158.222 225.333 158.667M219 160L220 161L219 160M226.333 162.667C226.278 162.722 226.222 163.778 226.667 163.333C226.722 163.278 226.778 162.222 226.333 162.667M78 163L79 164L78 163z"/>
<path style="fill:#214463; stroke:none;" d="M213 163L213 167C213.71 165.241 213.71 164.759 213 163z"/>
<path style="fill:#3b69cb; stroke:none;" d="M77 164L78 165L77 164z"/>
<path style="fill:#214463; stroke:none;" d="M219 165L220 166L219 165M227 166L227 169C227.696 167.446 227.696 167.554 227 166z"/>
<path style="fill:#294093; stroke:none;" d="M213 167C213 172.305 214.112 177.747 213.903 182.984C213.836 184.651 213.47 187.439 211.276 187.531C204.7 187.805 200.631 178.532 193.109 183.742C188.764 186.752 188.433 192.243 187.728 197C186.827 203.087 185.445 209.34 180.812 213.775C174.943 219.393 163.591 220.319 156 222.555C144.17 226.039 135.888 231.587 129 242C141.441 247.907 154.734 242.007 167 237.833C170.215 236.739 177.3 234.219 178 239C184.152 237.259 187.25 231.303 192.001 227.326C196.836 223.278 202.975 220.851 206.957 215.826C214.582 206.204 215.001 195.66 215 184C215 178.446 215.226 172.161 213 167z"/>
<path style="fill:#214463; stroke:none;" d="M66 169L67 170L66 169z"/>
<path style="fill:#3b69cb; stroke:none;" d="M220 169L221 170L220 169z"/>
<path style="fill:#214463; stroke:none;" d="M74 170L75 171L74 170M228 171L228 174C228.696 172.446 228.696 172.554 228 171M65 172L66 173L65 172M64 175L64 178C64.6961 176.446 64.6961 176.554 64 175M221 176L222 177L221 176M229 176L230 177L229 176M78.3333 177.667C78.2778 177.722 78.2223 178.778 78.6667 178.333C78.7222 178.278 78.7778 177.222 78.3333 177.667z"/>
<path style="fill:#294093; stroke:none;" d="M63 179L63 184C63.8299 181.97 63.8299 181.03 63 179z"/>
<path style="fill:#214463; stroke:none;" d="M71 181L72 182L71 181M215 183L215 194C216.431 190.59 216.431 186.41 215 183z"/>
<path style="fill:#3b69cb; stroke:none;" d="M230 185L230 191C230.951 188.715 230.951 187.285 230 185z"/>
<path style="fill:#214463; stroke:none;" d="M63 192L63 198C63.9511 195.715 63.9511 194.285 63 192M71 194L72 195L71 194M221.333 195.667C221.278 195.722 221.222 196.778 221.667 196.333C221.722 196.278 221.778 195.222 221.333 195.667z"/>
<path style="fill:#3b69cb; stroke:none;" d="M228 199L229 200L228 199z"/>
<path style="fill:#214463; stroke:none;" d="M229 199L230 200L229 199M64 200L64 203C64.6961 201.446 64.6961 201.554 64 200M220 201L221 202L220 201z"/>
<path style="fill:#3b69cb; stroke:none;" d="M227 203L228 204L227 203z"/>
<path style="fill:#214463; stroke:none;" d="M228 203L229 204L228 203M65.3333 205.667C65.2778 205.722 65.2222 206.778 65.6667 206.333C65.7222 206.278 65.7778 205.222 65.3333 205.667M212.333 205.667C212.278 205.722 212.222 206.778 212.667 206.333C212.722 206.278 212.778 205.222 212.333 205.667M219 205L220 206L219 205M227 206L228 207L227 206M226 207L227 208L226 207M66 209L67 210L66 209M217 209L218 210L217 209M67 212L68 213L67 212z"/>
<path style="fill:#3b69cb; stroke:none;" d="M216 212L217 213L216 212M78 214L79 215L78 214M215 214L216 215L215 214M213.333 215.667C213.278 215.722 213.222 216.778 213.667 216.333C213.722 216.278 213.778 215.222 213.333 215.667z"/>
<path style="fill:#214463; stroke:none;" d="M80 216L81 217L80 216M210 220L211 221L210 220M219 220L220 221L219 220M218 221L219 222L218 221M217 222L218 223L217 222z"/>
<path style="fill:#3b69cb; stroke:none;" d="M207 223L208 224L207 223z"/>
<path style="fill:#214463; stroke:none;" d="M74 225L75 226L74 225z"/>
<path style="fill:#3b69cb; stroke:none;" d="M89 225L90 226L89 225z"/>
<path style="fill:#214463; stroke:none;" d="M92 227L93 228L92 227M76 228L77 229L76 228M93 228L94 229L93 228M77 229L78 230L77 229z"/>
<path style="fill:#3b69cb; stroke:none;" d="M94 229L95 230L94 229z"/>
<path style="fill:#214463; stroke:none;" d="M105 230L106 231L105 230z"/>
<path style="fill:#3b69cb; stroke:none;" d="M198 230L199 231L198 230M97 231L98 232L97 231z"/>
<path style="fill:#214463; stroke:none;" d="M208 231L209 232L208 231M69.6667 232.333C69.2222 232.778 70.2778 232.722 70.3333 232.667C70.7778 232.222 69.7222 232.278 69.6667 232.333M108 232L109 233L108 232M207 232L208 233L207 232z"/>
<path style="fill:#447717; stroke:none;" d="M67 263C68.157 258.953 69.747 254.827 71.5178 251C72.6861 248.475 74.5085 246.425 75.8086 244C78.0461 239.826 73.2211 231.939 68.213 234.752C60.9758 238.816 58.2283 260.073 67 263z"/>
<path style="fill:#294093; stroke:none;" d="M110 233L111 234L110 233z"/>
<path style="fill:#214463; stroke:none;" d="M206 233L207 234L206 233z"/>
<path style="fill:#3b69cb; stroke:none;" d="M101 234L102 235L101 234z"/>
<path style="fill:#214463; stroke:none;" d="M111 234L112 235L111 234z"/>
<path style="fill:#3b69cb; stroke:none;" d="M194 234L195 235L194 234z"/>
<path style="fill:#214463; stroke:none;" d="M205 234L206 235L205 234M204 235L205 236L204 235z"/>
<path style="fill:#3b69cb; stroke:none;" d="M104 236L105 237L104 236z"/>
<path style="fill:#214463; stroke:none;" d="M203 236L204 237L203 236z"/>
<path style="fill:#3b69cb; stroke:none;" d="M191 237L192 238L191 237z"/>
<path style="fill:#214463; stroke:none;" d="M202 237L203 238L202 237M117 238L118 239L117 238M201 238L202 239L201 238M176 242C177.457 240.897 177.897 240.457 179 239C176.876 239.899 176.899 239.876 176 242z"/>
<path style="fill:#3b69cb; stroke:none;" d="M188 239L189 240L188 239z"/>
<path style="fill:#214463; stroke:none;" d="M200 239L201 240L200 239M120 240L121 241L120 240z"/>
<path style="fill:#3b69cb; stroke:none;" d="M187 240L188 241L187 240z"/>
<path style="fill:#214463; stroke:none;" d="M199 240L200 241L199 240z"/>
<path style="fill:#3b69cb; stroke:none;" d="M111 241L112 242L111 241M186 241L187 242L186 241z"/>
<path style="fill:#214463; stroke:none;" d="M198 241L199 242L198 241z"/>
<path style="fill:#3b69cb; stroke:none;" d="M112 242L113 243L112 242M185 242L186 243L185 242z"/>
<path style="fill:#214463; stroke:none;" d="M197 242L198 243L197 242z"/>
<path style="fill:#3b69cb; stroke:none;" d="M184 243L185 244L184 243z"/>
<path style="fill:#214463; stroke:none;" d="M196 243L197 244L196 243z"/>
<path style="fill:#447717; stroke:none;" d="M81 244C74.4586 251.338 74.7604 264.128 65 268L65 273C72.9523 272.587 79.8271 267.831 85.9992 263.101C88.1557 261.449 91.7932 259.086 91.7932 255.996C91.7932 251.361 84.3694 246.373 81 244z"/>
<path style="fill:#3b69cb; stroke:none;" d="M115 244L116 245L115 244M183 244L184 245L183 244z"/>
<path style="fill:#214463; stroke:none;" d="M195 244L196 245L195 244M93 245L94 246L93 245z"/>
<path style="fill:#3b69cb; stroke:none;" d="M116 245L117 246L116 245z"/>
<path style="fill:#214463; stroke:none;" d="M194 245L195 246L194 245M94 246L95 247L94 246M129 246L130 247L129 246M193 246L194 247L193 246M95 247L96 248L95 247M166.667 247.333C166.222 247.778 167.278 247.722 167.333 247.667C167.778 247.222 166.722 247.278 166.667 247.333z"/>
<path style="fill:#3b69cb; stroke:none;" d="M179 247L180 248L179 247z"/>
<path style="fill:#214463; stroke:none;" d="M192 247L193 248L192 247M96 248L97 249L96 248M164.667 248.333C164.222 248.778 165.278 248.722 165.333 248.667C165.778 248.222 164.722 248.278 164.667 248.333z"/>
<path style="fill:#3b69cb; stroke:none;" d="M178 248L179 249L178 248z"/>
<path style="fill:#214463; stroke:none;" d="M191 248L192 249L191 248z"/>
<path style="fill:#3b69cb; stroke:none;" d="M122 249L123 250L122 249z"/>
<path style="fill:#214463; stroke:none;" d="M190 249L191 250L190 249M136.667 250.333C136.222 250.778 137.278 250.722 137.333 250.667C137.778 250.222 136.722 250.278 136.667 250.333M100 251L101 252L100 251z"/>
<path style="fill:#3b69cb; stroke:none;" d="M125 251L126 252L125 251z"/>
<path style="fill:#214463; stroke:none;" d="M153 251C154.769 251.779 156.036 251.912 158 252C156.231 251.221 154.964 251.088 153 251z"/>
<path style="fill:#3b69cb; stroke:none;" d="M171 252L172 253L171 252M186 252L187 253L186 252z"/>
<path style="fill:#214463; stroke:none;" d="M167 254L168 255L167 254M93.3333 255.667C93.2778 255.722 93.2222 256.778 93.6667 256.333C93.7222 256.278 93.7778 255.222 93.3333 255.667z"/>
<path style="fill:#3b69cb; stroke:none;" d="M182 255L183 256L182 255M134 256L135 257L134 256M162 256L163 257L162 256z"/>
<path style="fill:#214463; stroke:none;" d="M108 257L109 258L108 257M137 257L138 258L137 257z"/>
<path style="fill:#3b69cb; stroke:none;" d="M179 257L180 258L179 257z"/>
<path style="fill:#214463; stroke:none;" d="M153 258L154 259L153 258M63 261L64 270L68 268C66.4482 265.464 65.186 263.032 63 261M115 261L116 262L115 261z"/>
<path style="fill:#3b69cb; stroke:none;" d="M171 261L172 262L171 261M117 262L118 263L117 262z"/>
<path style="fill:#214463; stroke:none;" d="M169 262L170 263L169 262M119 263L120 264L119 263M166 263L167 264L166 263M122 264L123 265L122 264z"/>
<path style="fill:#3b69cb; stroke:none;" d="M161 264C162.248 264.685 162.548 264.749 164 265C162.752 264.315 162.452 264.251 161 264z"/>
<path style="fill:#214463; stroke:none;" d="M125 265C126.248 265.685 126.548 265.749 128 266C126.752 265.315 126.452 265.251 125 265z"/>
<path style="fill:#3b69cb; stroke:none;" d="M154 265C155.248 265.685 155.548 265.749 157 266C155.752 265.315 155.452 265.251 154 265z"/>
<path style="fill:#214463; stroke:none;" d="M157 265C158.248 265.685 158.548 265.749 160 266C158.752 265.315 158.452 265.251 157 265M130 266C136.202 268.603 145.298 267 152 267C145.798 264.397 136.702 266 130 266z"/>
<path style="fill:#4e8f15; stroke:none;" d="M116 270C118.696 278.443 126.644 285.333 135 288C135 284.434 136.306 277.552 133.972 274.603C132.586 272.852 129.982 273.083 127.999 272.831C123.907 272.311 120.007 270.919 116 270z"/>
<path style="fill:#447717; stroke:none;" d="M135 275L135 283C136.161 280.23 136.161 277.77 135 275z"/>
<path style="fill:#020205; stroke:none;" d="M112 277L113 278L112 277z"/>
</svg>
