<?xml version="1.0" encoding="UTF-8" standalone="no" ?>
<!DOCTYPE svg PUBLIC "-//W3C//DTD SVG 1.1//EN" "http://www.w3.org/Graphics/SVG/1.1/DTD/svg11.dtd">
<svg xmlns="http://www.w3.org/2000/svg" xmlns:xlink="http://www.w3.org/1999/xlink" version="1.1" width="300" height="300" viewBox="0 0 300 300" xml:space="preserve">
<desc>Created with Fabric.js 5.2.4</desc>
<defs>
</defs>
<g transform="matrix(1 0 0 1 150 150)" id="eae7acb1-43ad-40c8-a24c-69f5498959fd"  >
<rect style="stroke: none; stroke-width: 1; stroke-dasharray: none; stroke-linecap: butt; stroke-dashoffset: 0; stroke-linejoin: miter; stroke-miterlimit: 4; fill: rgb(255,255,255); fill-rule: nonzero; opacity: 1; visibility: hidden;" vector-effect="non-scaling-stroke"  x="-150" y="-150" rx="0" ry="0" width="300" height="300" />
</g>
<g transform="matrix(Infinity NaN NaN Infinity 0 0)" id="a5c117fe-50d6-44d7-bb1a-16f08c65880a"  >
</g>
<g transform="matrix(0.28 0 0 0.28 150 150)"  >
<g style="" vector-effect="non-scaling-stroke"   >
		<g transform="matrix(1 0 0 1 0 0)"  >
<rect style="stroke: none; stroke-width: 1; stroke-dasharray: none; stroke-linecap: butt; stroke-dashoffset: 0; stroke-linejoin: miter; stroke-miterlimit: 4; fill: rgb(255,255,255); fill-rule: nonzero; opacity: 1; visibility: hidden;" vector-effect="non-scaling-stroke"  x="-540" y="-540" rx="0" ry="0" width="1080" height="1080" />
</g>
		<g transform="matrix(1 0 0 1 0 0)"  >
<path style="stroke: none; stroke-width: 1; stroke-dasharray: none; stroke-linecap: butt; stroke-dashoffset: 0; stroke-linejoin: miter; stroke-miterlimit: 4; fill: rgb(2,2,5); fill-rule: nonzero; opacity: 1;" vector-effect="non-scaling-stroke"  transform=" translate(-149.64, -150)" d="M 115 4 C 114.52 27.2662 105.743 49.5248 109.084 73.0394 C 110.571 83.5036 114.742 96.1766 125 101 C 120.308 103.035 115.285 104.462 110.961 107.283 C 98.0874 115.683 88.465 128.547 78.4853 140 C 67.5213 152.583 57.3324 164.354 56.0895 182 C 55.4033 191.742 56.4889 201.705 59.5185 211 C 60.9938 215.526 65.2563 221.355 65.4182 226 C 65.5305 229.222 62.6383 232.299 61.1937 235 C 58.9838 239.132 58.0859 243.397 57.4282 248 C 55.8323 259.17 59.9988 270.743 60 282 C 73.9161 278.781 89.9756 271.384 98 259 C 102.439 260.56 105.062 263.661 109 266 C 109.978 280.292 125.002 292.759 138 296 C 141.098 288.707 141.02 280.757 142 273 C 157.568 272.44 172.57 270.717 186 261.921 C 194.969 256.046 202.371 247.512 209.985 240.039 C 219.525 230.676 228.494 221.924 232.921 209 C 243.219 178.942 232.046 141.782 209.996 120.015 C 202.026 112.147 191.311 103.948 180 102 C 185.787 99.0555 191.981 98.5844 198.004 96.4483 C 207.424 93.1073 215.22 86.1631 220.667 78 C 223.236 74.1499 226.006 70.7206 226 66 C 231.822 62.8168 236.244 55.273 240.855 50.4244 C 242.448 48.7497 244.728 45.8962 242.377 43.7724 C 240.768 42.3182 237.95 42.9164 236 42.9653 C 229.93 43.1174 224.115 43.0919 218.09 43.9113 C 196.603 46.8329 169.877 49.413 154 66 C 150.702 56.2342 146.418 47.3188 140.241 39 C 131.415 27.114 122.16 18.6552 118 4 L 115 4 z" stroke-linecap="round" />
</g>
		<g transform="matrix(1 0 0 1 -16.56 -91.4)"  >
<path style="stroke: none; stroke-width: 1; stroke-dasharray: none; stroke-linecap: butt; stroke-dashoffset: 0; stroke-linejoin: miter; stroke-miterlimit: 4; fill: rgb(78,143,21); fill-rule: nonzero; opacity: 1;" vector-effect="non-scaling-stroke"  transform=" translate(-132.59, -61.14)" d="M 117 23 C 116.614 41.7045 111.198 61.7765 117.912 80 C 120.859 87.9978 124.87 96.158 134 98 C 130.497 84.5101 121.485 65.0702 134 53 C 134 65.8922 133.559 78.353 136.425 91 C 137.641 96.3663 142.524 102.678 148.397 97.142 C 151.977 93.7664 150.296 81.5032 149.711 77 C 147.628 60.9696 139.654 48.9582 129.428 37 C 125.389 32.2765 121.942 26.7907 117 23 z" stroke-linecap="round" />
</g>
		<g transform="matrix(1 0 0 1 -31.67 -86.89)"  >
<path style="stroke: none; stroke-width: 1; stroke-dasharray: none; stroke-linecap: butt; stroke-dashoffset: 0; stroke-linejoin: miter; stroke-miterlimit: 4; fill: rgb(68,119,23); fill-rule: nonzero; opacity: 1;" vector-effect="non-scaling-stroke"  transform=" translate(-116.63, -66.5)" d="M 114 47 C 114 60.917 113.644 72.9419 119 86 C 120.194 81.6491 116.881 76.3806 115.888 72 C 114.085 64.0454 117.118 54.4304 114 47 z" stroke-linecap="round" />
</g>
		<g transform="matrix(1 0 0 1 45.9 -76.84)"  >
<path style="stroke: none; stroke-width: 1; stroke-dasharray: none; stroke-linecap: butt; stroke-dashoffset: 0; stroke-linejoin: miter; stroke-miterlimit: 4; fill: rgb(78,143,21); fill-rule: nonzero; opacity: 1;" vector-effect="non-scaling-stroke"  transform=" translate(-193.36, -74.01)" d="M 232 50 C 227.991 50.3168 224.018 51.4329 220 51.544 C 215.953 51.6559 212.077 50.7613 208 51.2894 C 192.925 53.2416 179.179 57.9898 165.91 64.8835 C 162.355 66.731 158.023 67.4234 155.774 71.1744 C 153.294 75.3101 155.967 85.1121 156.001 90 C 156.014 91.992 155.699 94.7185 157.028 96.3966 C 158.583 98.36 161.791 97.9849 164 97.9992 C 170.997 98.0448 174.677 95.5159 181.039 93.7191 C 187.414 91.9186 193.588 92.2185 199.715 89.0471 C 210.329 83.5522 215.892 73.6397 222.333 64 C 225.485 59.283 229.174 54.9125 232 50 z" stroke-linecap="round" />
</g>
		<g transform="matrix(1 0 0 1 37.09 -75.98)"  >
<path style="stroke: none; stroke-width: 1; stroke-dasharray: none; stroke-linecap: butt; stroke-dashoffset: 0; stroke-linejoin: miter; stroke-miterlimit: 4; fill: rgb(2,2,5); fill-rule: nonzero; opacity: 1;" vector-effect="non-scaling-stroke"  transform=" translate(-182, -82.5)" d="M 163 91 C 172.437 90.5104 181.47 83.9352 190 80.1782 C 193.975 78.4274 198.52 77.7426 201 74 C 190.768 74.0293 182.105 78.9322 173 83.1636 C 168.765 85.1317 164.486 86.2781 163 91 z" stroke-linecap="round" />
</g>
		<g transform="matrix(1 0 0 1 44 -71.5)"  >
<path style="stroke: none; stroke-width: 1; stroke-dasharray: none; stroke-linecap: butt; stroke-dashoffset: 0; stroke-linejoin: miter; stroke-miterlimit: 4; fill: rgb(33,68,99); fill-rule: nonzero; opacity: 1;" vector-effect="non-scaling-stroke"  transform=" translate(-194, -78.5)" d="M 193.667 78.3333 C 193.222 78.7778 194.278 78.7222 194.333 78.6667 C 194.778 78.2222 193.722 78.2778 193.667 78.3333 z" stroke-linecap="round" />
</g>
		<g transform="matrix(1.01 0 0 1 -2.8 36.29)"  >
<path style="stroke: none; stroke-width: 1; stroke-dasharray: none; stroke-linecap: butt; stroke-dashoffset: 0; stroke-linejoin: miter; stroke-miterlimit: 4; fill: rgb(87,171,253); fill-rule: nonzero; opacity: 1;" vector-effect="non-scaling-stroke"  transform=" translate(-146.8, -186.29)" d="M 227 203 C 228.646 201.551 228.453 201.208 228 199 C 230.955 196.418 230 191.707 230 188 C 230 178.172 228.081 168.441 225.279 159 C 218.797 137.161 200.572 114.194 178 107.44 C 171.501 105.495 164.704 106 158 106 C 150.735 106 143.235 105.47 136 106.17 C 116.403 108.066 105.606 121.444 92.9753 135 C 82.1778 146.589 69.017 157.969 65.2361 174 C 58.165 203.981 72.8638 228.079 95 247.13 C 103.476 254.425 112.882 262.05 124 264.761 C 139.757 268.603 161.499 266.985 176 259.627 C 184.505 255.311 191.333 248.667 198 242 C 206.563 233.437 217.28 225.792 223.201 215 C 225.282 211.207 227.352 207.328 227 203 z" stroke-linecap="round" />
</g>
		<g transform="matrix(1 0 0 1 29.5 -49.5)"  >
<path style="stroke: none; stroke-width: 1; stroke-dasharray: none; stroke-linecap: butt; stroke-dashoffset: 0; stroke-linejoin: miter; stroke-miterlimit: 4; fill: rgb(255,255,255); fill-rule: nonzero; opacity: 1;" vector-effect="non-scaling-stroke"  transform=" translate(-179.5, -100.5)" d="M 179 100 L 180 101 L 179 100 z" stroke-linecap="round" />
</g>
		<g transform="matrix(1 0 0 1 -16.5 -43.5)"  >
<path style="stroke: none; stroke-width: 1; stroke-dasharray: none; stroke-linecap: butt; stroke-dashoffset: 0; stroke-linejoin: miter; stroke-miterlimit: 4; fill: rgb(59,105,203); fill-rule: nonzero; opacity: 1;" vector-effect="non-scaling-stroke"  transform=" translate(-133.5, -106.5)" d="M 133 106 L 134 107 L 133 106 z" stroke-linecap="round" />
</g>
		<g transform="matrix(1 0 0 1 -15.5 -34.5)"  >
<path style="stroke: none; stroke-width: 1; stroke-dasharray: none; stroke-linecap: butt; stroke-dashoffset: 0; stroke-linejoin: miter; stroke-miterlimit: 4; fill: rgb(41,64,147); fill-rule: nonzero; opacity: 1;" vector-effect="non-scaling-stroke"  transform=" translate(-134.5, -115.5)" d="M 134 115 L 135 116 L 134 115 z" stroke-linecap="round" />
</g>
		<g transform="matrix(1 0 0 1 -3.52 37.14)"  >
<path style="stroke: none; stroke-width: 1; stroke-dasharray: none; stroke-linecap: butt; stroke-dashoffset: 0; stroke-linejoin: miter; stroke-miterlimit: 4; fill: rgb(2,2,5); fill-rule: nonzero; opacity: 1;" vector-effect="non-scaling-stroke"  transform=" translate(-146.48, -187.14)" d="M 135 115.454 C 120.02 117.489 110.859 129.488 101.081 139.711 C 92.718 148.454 82.9609 155.427 76.6088 166 C 66.9233 182.122 70.2658 205.049 82.3009 218.996 C 89.872 227.77 100.769 233.775 110 240.63 C 122.558 249.955 135.34 260.761 152 258.714 C 167.074 256.861 177.841 249.099 189 239.424 C 199.596 230.237 212.051 222.147 217.981 208.996 C 221.367 201.489 222.013 193.124 222 185 C 221.955 155.897 206.152 129.359 179 117.44 C 169.004 113.052 161.968 117.658 152 117.659 C 146.207 117.659 140.842 114.661 135 115.454 z" stroke-linecap="round" />
</g>
		<g transform="matrix(1 0 0 1 26.5 -33.5)"  >
<path style="stroke: none; stroke-width: 1; stroke-dasharray: none; stroke-linecap: butt; stroke-dashoffset: 0; stroke-linejoin: miter; stroke-miterlimit: 4; fill: rgb(59,105,203); fill-rule: nonzero; opacity: 1;" vector-effect="non-scaling-stroke"  transform=" translate(-176.5, -116.5)" d="M 176 116 L 177 117 L 176 116 z" stroke-linecap="round" />
</g>
		<g transform="matrix(1 0 0 1 2.5 -31)"  >
<path style="stroke: none; stroke-width: 1; stroke-dasharray: none; stroke-linecap: butt; stroke-dashoffset: 0; stroke-linejoin: miter; stroke-miterlimit: 4; fill: rgb(33,68,99); fill-rule: nonzero; opacity: 1;" vector-effect="non-scaling-stroke"  transform=" translate(-152.5, -119)" d="M 108 118 L 109 119 L 108 118 M 197 118 L 198 119 L 197 118 M 107 119 L 108 120 L 107 119 z" stroke-linecap="round" />
</g>
		<g transform="matrix(1 0 0 1 -27.5 -30.5)"  >
<path style="stroke: none; stroke-width: 1; stroke-dasharray: none; stroke-linecap: butt; stroke-dashoffset: 0; stroke-linejoin: miter; stroke-miterlimit: 4; fill: rgb(59,105,203); fill-rule: nonzero; opacity: 1;" vector-effect="non-scaling-stroke"  transform=" translate(-122.5, -119.5)" d="M 122 119 L 123 120 L 122 119 z" stroke-linecap="round" />
</g>
		<g transform="matrix(1 0 0 1 34.5 -29.5)"  >
<path style="stroke: none; stroke-width: 1; stroke-dasharray: none; stroke-linecap: butt; stroke-dashoffset: 0; stroke-linejoin: miter; stroke-miterlimit: 4; fill: rgb(59,105,203); fill-rule: nonzero; opacity: 1;" vector-effect="non-scaling-stroke"  transform=" translate(-184.5, -120.5)" d="M 184 120 L 185 121 L 184 120 z" stroke-linecap="round" />
</g>
		<g transform="matrix(1 0 0 1 -44.5 -28.5)"  >
<path style="stroke: none; stroke-width: 1; stroke-dasharray: none; stroke-linecap: butt; stroke-dashoffset: 0; stroke-linejoin: miter; stroke-miterlimit: 4; fill: rgb(33,68,99); fill-rule: nonzero; opacity: 1;" vector-effect="non-scaling-stroke"  transform=" translate(-105.5, -121.5)" d="M 105 121 L 106 122 L 105 121 z" stroke-linecap="round" />
</g>
		<g transform="matrix(1 0 0 1 0.97 36.81)"  >
<path style="stroke: none; stroke-width: 1; stroke-dasharray: none; stroke-linecap: butt; stroke-dashoffset: 0; stroke-linejoin: miter; stroke-miterlimit: 4; fill: rgb(59,105,203); fill-rule: nonzero; opacity: 1;" vector-effect="non-scaling-stroke"  transform=" translate(-150.97, -186.81)" d="M 179 237 C 170.866 234.663 162.679 239.256 155 241.653 C 145.711 244.551 138.132 245.038 129 242 C 135.412 235.039 140.818 228.174 150 224.796 C 156.153 222.533 162.65 220.745 169 219.127 C 173.043 218.097 177.558 217.402 180.812 214.581 C 189.94 206.668 184.159 191.688 193.109 184.434 C 198.364 180.175 203.116 184.194 207.995 186.735 C 210.131 187.848 212.749 188.703 213.682 185.756 C 214.934 181.803 213.215 177.013 213.039 173 C 212.121 152.056 197.572 130.043 177 122.836 C 168.324 119.796 160.678 123.402 152 123.907 C 145.589 124.28 139.394 121.209 133 122.33 C 122.821 124.115 114.875 135.124 108 142 C 105.274 144.726 101.579 147.531 99.7778 151 C 97.2221 155.921 102.542 160.758 101.157 165.985 C 99.4083 172.583 92.7348 177.427 90.2323 184 C 88.0824 189.647 86.6554 197.209 89.0856 203 C 91.1076 207.818 95.1196 211.475 97.6366 216 C 99.5973 219.525 99.1309 224.409 101.603 227.482 C 105.19 231.941 112.258 235.257 117 238.424 C 122.824 242.314 128.377 247.086 135 249.605 C 149.854 255.254 170.309 250.847 179 237 z" stroke-linecap="round" />
</g>
		<g transform="matrix(1 0 0 1 -31.5 -27.5)"  >
<path style="stroke: none; stroke-width: 1; stroke-dasharray: none; stroke-linecap: butt; stroke-dashoffset: 0; stroke-linejoin: miter; stroke-miterlimit: 4; fill: rgb(59,105,203); fill-rule: nonzero; opacity: 1;" vector-effect="non-scaling-stroke"  transform=" translate(-118.5, -122.5)" d="M 118 122 L 119 123 L 118 122 z" stroke-linecap="round" />
</g>
		<g transform="matrix(1 0 0 1 -38.5 -20.5)"  >
<path style="stroke: none; stroke-width: 1; stroke-dasharray: none; stroke-linecap: butt; stroke-dashoffset: 0; stroke-linejoin: miter; stroke-miterlimit: 4; fill: rgb(59,105,203); fill-rule: nonzero; opacity: 1;" vector-effect="non-scaling-stroke"  transform=" translate(-111.5, -129.5)" d="M 111 129 L 112 130 L 111 129 z" stroke-linecap="round" />
</g>
		<g transform="matrix(1 0 0 1 49.5 -18.5)"  >
<path style="stroke: none; stroke-width: 1; stroke-dasharray: none; stroke-linecap: butt; stroke-dashoffset: 0; stroke-linejoin: miter; stroke-miterlimit: 4; fill: rgb(59,105,203); fill-rule: nonzero; opacity: 1;" vector-effect="non-scaling-stroke"  transform=" translate(-199.5, -131.5)" d="M 199 131 L 200 132 L 199 131 z" stroke-linecap="round" />
</g>
		<g transform="matrix(1 0 0 1 -46.5 -12.5)"  >
<path style="stroke: none; stroke-width: 1; stroke-dasharray: none; stroke-linecap: butt; stroke-dashoffset: 0; stroke-linejoin: miter; stroke-miterlimit: 4; fill: rgb(255,255,255); fill-rule: nonzero; opacity: 1;" vector-effect="non-scaling-stroke"  transform=" translate(-103.5, -137.5)" d="M 103 137 L 104 138 L 103 137 z" stroke-linecap="round" />
</g>
		<g transform="matrix(1 0 0 1 55.5 -12.5)"  >
<path style="stroke: none; stroke-width: 1; stroke-dasharray: none; stroke-linecap: butt; stroke-dashoffset: 0; stroke-linejoin: miter; stroke-miterlimit: 4; fill: rgb(59,105,203); fill-rule: nonzero; opacity: 1;" vector-effect="non-scaling-stroke"  transform=" translate(-205.5, -137.5)" d="M 205 137 L 206 138 L 205 137 z" stroke-linecap="round" />
</g>
		<g transform="matrix(1 0 0 1 -49.5 -9.5)"  >
<path style="stroke: none; stroke-width: 1; stroke-dasharray: none; stroke-linecap: butt; stroke-dashoffset: 0; stroke-linejoin: miter; stroke-miterlimit: 4; fill: rgb(255,255,255); fill-rule: nonzero; opacity: 1;" vector-effect="non-scaling-stroke"  transform=" translate(-100.5, -140.5)" d="M 100 140 L 101 141 L 100 140 z" stroke-linecap="round" />
</g>
		<g transform="matrix(1 0 0 1 59.5 -7.5)"  >
<path style="stroke: none; stroke-width: 1; stroke-dasharray: none; stroke-linecap: butt; stroke-dashoffset: 0; stroke-linejoin: miter; stroke-miterlimit: 4; fill: rgb(59,105,203); fill-rule: nonzero; opacity: 1;" vector-effect="non-scaling-stroke"  transform=" translate(-209.5, -142.5)" d="M 209 142 L 210 143 L 209 142 z" stroke-linecap="round" />
</g>
		<g transform="matrix(1 0 0 1 -59 -6)"  >
<path style="stroke: none; stroke-width: 1; stroke-dasharray: none; stroke-linecap: butt; stroke-dashoffset: 0; stroke-linejoin: miter; stroke-miterlimit: 4; fill: rgb(33,68,99); fill-rule: nonzero; opacity: 1;" vector-effect="non-scaling-stroke"  transform=" translate(-91, -144)" d="M 85 143 L 86 144 L 85 143 M 97 143 L 98 144 L 97 143 M 84 144 L 85 145 L 84 144 z" stroke-linecap="round" />
</g>
		<g transform="matrix(1 0 0 1 -53.5 -5.5)"  >
<path style="stroke: none; stroke-width: 1; stroke-dasharray: none; stroke-linecap: butt; stroke-dashoffset: 0; stroke-linejoin: miter; stroke-miterlimit: 4; fill: rgb(255,255,255); fill-rule: nonzero; opacity: 1;" vector-effect="non-scaling-stroke"  transform=" translate(-96.5, -144.5)" d="M 96 144 L 97 145 L 96 144 z" stroke-linecap="round" />
</g>
		<g transform="matrix(1 0 0 1 -66.5 -4.5)"  >
<path style="stroke: none; stroke-width: 1; stroke-dasharray: none; stroke-linecap: butt; stroke-dashoffset: 0; stroke-linejoin: miter; stroke-miterlimit: 4; fill: rgb(33,68,99); fill-rule: nonzero; opacity: 1;" vector-effect="non-scaling-stroke"  transform=" translate(-83.5, -145.5)" d="M 83 145 L 84 146 L 83 145 z" stroke-linecap="round" />
</g>
		<g transform="matrix(1 0 0 1 53.5 -4.5)"  >
<path style="stroke: none; stroke-width: 1; stroke-dasharray: none; stroke-linecap: butt; stroke-dashoffset: 0; stroke-linejoin: miter; stroke-miterlimit: 4; fill: rgb(41,64,147); fill-rule: nonzero; opacity: 1;" vector-effect="non-scaling-stroke"  transform=" translate(-203.5, -145.5)" d="M 203 145 L 204 146 L 203 145 z" stroke-linecap="round" />
</g>
		<g transform="matrix(1 0 0 1 -67.5 -3.5)"  >
<path style="stroke: none; stroke-width: 1; stroke-dasharray: none; stroke-linecap: butt; stroke-dashoffset: 0; stroke-linejoin: miter; stroke-miterlimit: 4; fill: rgb(33,68,99); fill-rule: nonzero; opacity: 1;" vector-effect="non-scaling-stroke"  transform=" translate(-82.5, -146.5)" d="M 82 146 L 83 147 L 82 146 z" stroke-linecap="round" />
</g>
		<g transform="matrix(1 0 0 1 -55.5 -3.5)"  >
<path style="stroke: none; stroke-width: 1; stroke-dasharray: none; stroke-linecap: butt; stroke-dashoffset: 0; stroke-linejoin: miter; stroke-miterlimit: 4; fill: rgb(255,255,255); fill-rule: nonzero; opacity: 1;" vector-effect="non-scaling-stroke"  transform=" translate(-94.5, -146.5)" d="M 94 146 L 95 147 L 94 146 z" stroke-linecap="round" />
</g>
		<g transform="matrix(1 0 0 1 -7 -3)"  >
<path style="stroke: none; stroke-width: 1; stroke-dasharray: none; stroke-linecap: butt; stroke-dashoffset: 0; stroke-linejoin: miter; stroke-miterlimit: 4; fill: rgb(33,68,99); fill-rule: nonzero; opacity: 1;" vector-effect="non-scaling-stroke"  transform=" translate(-143, -147)" d="M 204 146 L 205 147 L 204 146 M 81 147 L 82 148 L 81 147 z" stroke-linecap="round" />
</g>
		<g transform="matrix(1 0 0 1 62.5 -2.5)"  >
<path style="stroke: none; stroke-width: 1; stroke-dasharray: none; stroke-linecap: butt; stroke-dashoffset: 0; stroke-linejoin: miter; stroke-miterlimit: 4; fill: rgb(59,105,203); fill-rule: nonzero; opacity: 1;" vector-effect="non-scaling-stroke"  transform=" translate(-212.5, -147.5)" d="M 212 147 L 213 148 L 212 147 z" stroke-linecap="round" />
</g>
		<g transform="matrix(1 0 0 1 -61.5 0)"  >
<path style="stroke: none; stroke-width: 1; stroke-dasharray: none; stroke-linecap: butt; stroke-dashoffset: 0; stroke-linejoin: miter; stroke-miterlimit: 4; fill: rgb(33,68,99); fill-rule: nonzero; opacity: 1;" vector-effect="non-scaling-stroke"  transform=" translate(-88.5, -150)" d="M 80 148 L 81 149 L 80 148 M 79 149 L 80 150 L 79 149 M 78 150 L 79 151 L 78 150 M 99 150 L 100 151 L 99 150 M 77 151 L 78 152 L 77 151 z" stroke-linecap="round" />
</g>
		<g transform="matrix(1 0 0 1 -61.5 1.5)"  >
<path style="stroke: none; stroke-width: 1; stroke-dasharray: none; stroke-linecap: butt; stroke-dashoffset: 0; stroke-linejoin: miter; stroke-miterlimit: 4; fill: rgb(59,105,203); fill-rule: nonzero; opacity: 1;" vector-effect="non-scaling-stroke"  transform=" translate(-88.5, -151.5)" d="M 88 151 L 89 152 L 88 151 z" stroke-linecap="round" />
</g>
		<g transform="matrix(1 0 0 1 0.5 2.5)"  >
<path style="stroke: none; stroke-width: 1; stroke-dasharray: none; stroke-linecap: butt; stroke-dashoffset: 0; stroke-linejoin: miter; stroke-miterlimit: 4; fill: rgb(33,68,99); fill-rule: nonzero; opacity: 1;" vector-effect="non-scaling-stroke"  transform=" translate(-150.5, -152.5)" d="M 98 151 L 99 152 L 98 151 M 214 151 L 215 152 L 214 151 M 97 152 L 98 153 L 97 152 M 86 153 L 87 154 L 86 153 z" stroke-linecap="round" />
</g>
		<g transform="matrix(1 0 0 1 -60.44 39)"  >
<path style="stroke: none; stroke-width: 1; stroke-dasharray: none; stroke-linecap: butt; stroke-dashoffset: 0; stroke-linejoin: miter; stroke-miterlimit: 4; fill: rgb(41,64,147); fill-rule: nonzero; opacity: 1;" vector-effect="non-scaling-stroke"  transform=" translate(-89.56, -189)" d="M 100 225 C 99.7214 213.152 87.6737 206.703 88.0432 195 C 88.245 188.608 90.8173 182.207 94.4421 177.004 C 96.9097 173.462 100.49 170.351 101.452 165.985 C 102.457 161.427 99.9258 157.335 99 153 C 94.1969 154.866 91.3125 158.183 87.9537 162.001 C 70.6518 181.668 74.6898 213.937 100 225 z" stroke-linecap="round" />
</g>
		<g transform="matrix(1 0 0 1 4.5 4)"  >
<path style="stroke: none; stroke-width: 1; stroke-dasharray: none; stroke-linecap: butt; stroke-dashoffset: 0; stroke-linejoin: miter; stroke-miterlimit: 4; fill: rgb(59,105,203); fill-rule: nonzero; opacity: 1;" vector-effect="non-scaling-stroke"  transform=" translate(-154.5, -154)" d="M 223 153 L 224 154 L 223 153 M 85 154 L 86 155 L 85 154 z" stroke-linecap="round" />
</g>
		<g transform="matrix(1 0 0 1 -55 4.5)"  >
<path style="stroke: none; stroke-width: 1; stroke-dasharray: none; stroke-linecap: butt; stroke-dashoffset: 0; stroke-linejoin: miter; stroke-miterlimit: 4; fill: rgb(33,68,99); fill-rule: nonzero; opacity: 1;" vector-effect="non-scaling-stroke"  transform=" translate(-95, -154.5)" d="M 94.6667 154.333 C 94.2222 154.778 95.2778 154.722 95.3333 154.667 C 95.7777 154.222 94.7222 154.278 94.6667 154.333 z" stroke-linecap="round" />
</g>
		<g transform="matrix(1 0 0 1 -75.5 5.5)"  >
<path style="stroke: none; stroke-width: 1; stroke-dasharray: none; stroke-linecap: butt; stroke-dashoffset: 0; stroke-linejoin: miter; stroke-miterlimit: 4; fill: rgb(33,68,99); fill-rule: nonzero; opacity: 1;" vector-effect="non-scaling-stroke"  transform=" translate(-74.5, -155.5)" d="M 74 155 L 75 156 L 74 155 z" stroke-linecap="round" />
</g>
		<g transform="matrix(1 0 0 1 -65.5 5.5)"  >
<path style="stroke: none; stroke-width: 1; stroke-dasharray: none; stroke-linecap: butt; stroke-dashoffset: 0; stroke-linejoin: miter; stroke-miterlimit: 4; fill: rgb(59,105,203); fill-rule: nonzero; opacity: 1;" vector-effect="non-scaling-stroke"  transform=" translate(-84.5, -155.5)" d="M 84 155 L 85 156 L 84 155 z" stroke-linecap="round" />
</g>
		<g transform="matrix(1 0 0 1 67.5 6)"  >
<path style="stroke: none; stroke-width: 1; stroke-dasharray: none; stroke-linecap: butt; stroke-dashoffset: 0; stroke-linejoin: miter; stroke-miterlimit: 4; fill: rgb(33,68,99); fill-rule: nonzero; opacity: 1;" vector-effect="non-scaling-stroke"  transform=" translate(-217.5, -156)" d="M 217.333 155.667 C 217.278 155.722 217.222 156.778 217.667 156.333 C 217.722 156.278 217.778 155.222 217.333 155.667 z" stroke-linecap="round" />
</g>
		<g transform="matrix(1 0 0 1 63.27 15)"  >
<path style="stroke: none; stroke-width: 1; stroke-dasharray: none; stroke-linecap: butt; stroke-dashoffset: 0; stroke-linejoin: miter; stroke-miterlimit: 4; fill: rgb(33,68,99); fill-rule: nonzero; opacity: 1;" vector-effect="non-scaling-stroke"  transform=" translate(-213.27, -165)" d="M 213 163 L 213 167 C 213.71 165.241 213.71 164.759 213 163 z" stroke-linecap="round" />
</g>
		<g transform="matrix(1 0 0 1 -72.5 14.5)"  >
<path style="stroke: none; stroke-width: 1; stroke-dasharray: none; stroke-linecap: butt; stroke-dashoffset: 0; stroke-linejoin: miter; stroke-miterlimit: 4; fill: rgb(59,105,203); fill-rule: nonzero; opacity: 1;" vector-effect="non-scaling-stroke"  transform=" translate(-77.5, -164.5)" d="M 77 164 L 78 165 L 77 164 z" stroke-linecap="round" />
</g>
		<g transform="matrix(1.01 0 0 1.04 21.01 54.43)"  >
<path style="stroke: none; stroke-width: 1; stroke-dasharray: none; stroke-linecap: butt; stroke-dashoffset: 0; stroke-linejoin: miter; stroke-miterlimit: 4; fill: rgb(41,64,147); fill-rule: nonzero; opacity: 1;" vector-effect="non-scaling-stroke"  transform=" translate(-172, -205.75)" d="M 213 167 C 213 172.305 214.112 177.747 213.903 182.984 C 213.836 184.651 213.47 187.439 211.276 187.531 C 204.7 187.805 200.631 178.532 193.109 183.742 C 188.764 186.752 188.433 192.243 187.728 197 C 186.827 203.087 185.445 209.34 180.812 213.775 C 174.943 219.393 163.591 220.319 156 222.555 C 144.17 226.039 135.888 231.587 129 242 C 141.441 247.907 154.734 242.007 167 237.833 C 170.215 236.739 177.3 234.219 178 239 C 184.152 237.259 187.25 231.303 192.001 227.326 C 196.836 223.278 202.975 220.851 206.957 215.826 C 214.582 206.204 215.001 195.66 215 184 C 215 178.446 215.226 172.161 213 167 z" stroke-linecap="round" />
</g>
		<g transform="matrix(1 0 0 1 -83.5 19.5)"  >
<path style="stroke: none; stroke-width: 1; stroke-dasharray: none; stroke-linecap: butt; stroke-dashoffset: 0; stroke-linejoin: miter; stroke-miterlimit: 4; fill: rgb(33,68,99); fill-rule: nonzero; opacity: 1;" vector-effect="non-scaling-stroke"  transform=" translate(-66.5, -169.5)" d="M 66 169 L 67 170 L 66 169 z" stroke-linecap="round" />
</g>
		<g transform="matrix(1 0 0 1 70.5 19.5)"  >
<path style="stroke: none; stroke-width: 1; stroke-dasharray: none; stroke-linecap: butt; stroke-dashoffset: 0; stroke-linejoin: miter; stroke-miterlimit: 4; fill: rgb(59,105,203); fill-rule: nonzero; opacity: 1;" vector-effect="non-scaling-stroke"  transform=" translate(-220.5, -169.5)" d="M 220 169 L 221 170 L 220 169 z" stroke-linecap="round" />
</g>
		<g transform="matrix(1 0 0 1 78.5 49.5)"  >
<path style="stroke: none; stroke-width: 1; stroke-dasharray: none; stroke-linecap: butt; stroke-dashoffset: 0; stroke-linejoin: miter; stroke-miterlimit: 4; fill: rgb(59,105,203); fill-rule: nonzero; opacity: 1;" vector-effect="non-scaling-stroke"  transform=" translate(-228.5, -199.5)" d="M 228 199 L 229 200 L 228 199 z" stroke-linecap="round" />
</g>
		<g transform="matrix(1 0 0 1 77.5 53.5)"  >
<path style="stroke: none; stroke-width: 1; stroke-dasharray: none; stroke-linecap: butt; stroke-dashoffset: 0; stroke-linejoin: miter; stroke-miterlimit: 4; fill: rgb(59,105,203); fill-rule: nonzero; opacity: 1;" vector-effect="non-scaling-stroke"  transform=" translate(-227.5, -203.5)" d="M 227 203 L 228 204 L 227 203 z" stroke-linecap="round" />
</g>
		<g transform="matrix(1 0 0 1 -2.5 64.22)"  >
<path style="stroke: none; stroke-width: 1; stroke-dasharray: none; stroke-linecap: butt; stroke-dashoffset: 0; stroke-linejoin: miter; stroke-miterlimit: 4; fill: rgb(59,105,203); fill-rule: nonzero; opacity: 1;" vector-effect="non-scaling-stroke"  transform=" translate(-147.5, -214.22)" d="M 216 212 L 217 213 L 216 212 M 78 214 L 79 215 L 78 214 M 215 214 L 216 215 L 215 214 M 213.333 215.667 C 213.278 215.722 213.222 216.778 213.667 216.333 C 213.722 216.278 213.778 215.222 213.333 215.667 z" stroke-linecap="round" />
</g>
		<g transform="matrix(1 0 0 1 0 69.5)"  >
<path style="stroke: none; stroke-width: 1; stroke-dasharray: none; stroke-linecap: butt; stroke-dashoffset: 0; stroke-linejoin: miter; stroke-miterlimit: 4; fill: rgb(33,68,99); fill-rule: nonzero; opacity: 1;" vector-effect="non-scaling-stroke"  transform=" translate(-150, -219.5)" d="M 80 216 L 81 217 L 80 216 M 210 220 L 211 221 L 210 220 M 219 220 L 220 221 L 219 220 M 218 221 L 219 222 L 218 221 M 217 222 L 218 223 L 217 222 z" stroke-linecap="round" />
</g>
		<g transform="matrix(1 0 0 1 57.5 73.5)"  >
<path style="stroke: none; stroke-width: 1; stroke-dasharray: none; stroke-linecap: butt; stroke-dashoffset: 0; stroke-linejoin: miter; stroke-miterlimit: 4; fill: rgb(59,105,203); fill-rule: nonzero; opacity: 1;" vector-effect="non-scaling-stroke"  transform=" translate(-207.5, -223.5)" d="M 207 223 L 208 224 L 207 223 z" stroke-linecap="round" />
</g>
		<g transform="matrix(1 0 0 1 -75.5 75.5)"  >
<path style="stroke: none; stroke-width: 1; stroke-dasharray: none; stroke-linecap: butt; stroke-dashoffset: 0; stroke-linejoin: miter; stroke-miterlimit: 4; fill: rgb(33,68,99); fill-rule: nonzero; opacity: 1;" vector-effect="non-scaling-stroke"  transform=" translate(-74.5, -225.5)" d="M 74 225 L 75 226 L 74 225 z" stroke-linecap="round" />
</g>
		<g transform="matrix(1 0 0 1 -60.5 75.5)"  >
<path style="stroke: none; stroke-width: 1; stroke-dasharray: none; stroke-linecap: butt; stroke-dashoffset: 0; stroke-linejoin: miter; stroke-miterlimit: 4; fill: rgb(59,105,203); fill-rule: nonzero; opacity: 1;" vector-effect="non-scaling-stroke"  transform=" translate(-89.5, -225.5)" d="M 89 225 L 90 226 L 89 225 z" stroke-linecap="round" />
</g>
		<g transform="matrix(1 0 0 1 -65 78.5)"  >
<path style="stroke: none; stroke-width: 1; stroke-dasharray: none; stroke-linecap: butt; stroke-dashoffset: 0; stroke-linejoin: miter; stroke-miterlimit: 4; fill: rgb(33,68,99); fill-rule: nonzero; opacity: 1;" vector-effect="non-scaling-stroke"  transform=" translate(-85, -228.5)" d="M 92 227 L 93 228 L 92 227 M 76 228 L 77 229 L 76 228 M 93 228 L 94 229 L 93 228 M 77 229 L 78 230 L 77 229 z" stroke-linecap="round" />
</g>
		<g transform="matrix(1 0 0 1 -55.5 79.5)"  >
<path style="stroke: none; stroke-width: 1; stroke-dasharray: none; stroke-linecap: butt; stroke-dashoffset: 0; stroke-linejoin: miter; stroke-miterlimit: 4; fill: rgb(59,105,203); fill-rule: nonzero; opacity: 1;" vector-effect="non-scaling-stroke"  transform=" translate(-94.5, -229.5)" d="M 94 229 L 95 230 L 94 229 z" stroke-linecap="round" />
</g>
		<g transform="matrix(1 0 0 1 -44.5 80.5)"  >
<path style="stroke: none; stroke-width: 1; stroke-dasharray: none; stroke-linecap: butt; stroke-dashoffset: 0; stroke-linejoin: miter; stroke-miterlimit: 4; fill: rgb(33,68,99); fill-rule: nonzero; opacity: 1;" vector-effect="non-scaling-stroke"  transform=" translate(-105.5, -230.5)" d="M 105 230 L 106 231 L 105 230 z" stroke-linecap="round" />
</g>
		<g transform="matrix(1 0 0 1 -2 81)"  >
<path style="stroke: none; stroke-width: 1; stroke-dasharray: none; stroke-linecap: butt; stroke-dashoffset: 0; stroke-linejoin: miter; stroke-miterlimit: 4; fill: rgb(59,105,203); fill-rule: nonzero; opacity: 1;" vector-effect="non-scaling-stroke"  transform=" translate(-148, -231)" d="M 198 230 L 199 231 L 198 230 M 97 231 L 98 232 L 97 231 z" stroke-linecap="round" />
</g>
		<g transform="matrix(1 0 0 1 -81.06 98.58)"  >
<path style="stroke: none; stroke-width: 1; stroke-dasharray: none; stroke-linecap: butt; stroke-dashoffset: 0; stroke-linejoin: miter; stroke-miterlimit: 4; fill: rgb(68,119,23); fill-rule: nonzero; opacity: 1;" vector-effect="non-scaling-stroke"  transform=" translate(-68.94, -248.58)" d="M 67 263 C 68.157 258.953 69.747 254.827 71.5178 251 C 72.6861 248.475 74.5085 246.425 75.8086 244 C 78.0461 239.826 73.2211 231.939 68.213 234.752 C 60.9758 238.816 58.2283 260.073 67 263 z" stroke-linecap="round" />
</g>
		<g transform="matrix(1 0 0 1 -39.5 83.5)"  >
<path style="stroke: none; stroke-width: 1; stroke-dasharray: none; stroke-linecap: butt; stroke-dashoffset: 0; stroke-linejoin: miter; stroke-miterlimit: 4; fill: rgb(41,64,147); fill-rule: nonzero; opacity: 1;" vector-effect="non-scaling-stroke"  transform=" translate(-110.5, -233.5)" d="M 110 233 L 111 234 L 110 233 z" stroke-linecap="round" />
</g>
		<g transform="matrix(1 0 0 1 56.5 83.5)"  >
<path style="stroke: none; stroke-width: 1; stroke-dasharray: none; stroke-linecap: butt; stroke-dashoffset: 0; stroke-linejoin: miter; stroke-miterlimit: 4; fill: rgb(33,68,99); fill-rule: nonzero; opacity: 1;" vector-effect="non-scaling-stroke"  transform=" translate(-206.5, -233.5)" d="M 206 233 L 207 234 L 206 233 z" stroke-linecap="round" />
</g>
		<g transform="matrix(1 0 0 1 -48.5 84.5)"  >
<path style="stroke: none; stroke-width: 1; stroke-dasharray: none; stroke-linecap: butt; stroke-dashoffset: 0; stroke-linejoin: miter; stroke-miterlimit: 4; fill: rgb(59,105,203); fill-rule: nonzero; opacity: 1;" vector-effect="non-scaling-stroke"  transform=" translate(-101.5, -234.5)" d="M 101 234 L 102 235 L 101 234 z" stroke-linecap="round" />
</g>
		<g transform="matrix(1 0 0 1 -38.5 84.5)"  >
<path style="stroke: none; stroke-width: 1; stroke-dasharray: none; stroke-linecap: butt; stroke-dashoffset: 0; stroke-linejoin: miter; stroke-miterlimit: 4; fill: rgb(33,68,99); fill-rule: nonzero; opacity: 1;" vector-effect="non-scaling-stroke"  transform=" translate(-111.5, -234.5)" d="M 111 234 L 112 235 L 111 234 z" stroke-linecap="round" />
</g>
		<g transform="matrix(1 0 0 1 44.5 84.5)"  >
<path style="stroke: none; stroke-width: 1; stroke-dasharray: none; stroke-linecap: butt; stroke-dashoffset: 0; stroke-linejoin: miter; stroke-miterlimit: 4; fill: rgb(59,105,203); fill-rule: nonzero; opacity: 1;" vector-effect="non-scaling-stroke"  transform=" translate(-194.5, -234.5)" d="M 194 234 L 195 235 L 194 234 z" stroke-linecap="round" />
</g>
		<g transform="matrix(1 0 0 1 55 85)"  >
<path style="stroke: none; stroke-width: 1; stroke-dasharray: none; stroke-linecap: butt; stroke-dashoffset: 0; stroke-linejoin: miter; stroke-miterlimit: 4; fill: rgb(33,68,99); fill-rule: nonzero; opacity: 1;" vector-effect="non-scaling-stroke"  transform=" translate(-205, -235)" d="M 205 234 L 206 235 L 205 234 M 204 235 L 205 236 L 204 235 z" stroke-linecap="round" />
</g>
		<g transform="matrix(1 0 0 1 -45.5 86.5)"  >
<path style="stroke: none; stroke-width: 1; stroke-dasharray: none; stroke-linecap: butt; stroke-dashoffset: 0; stroke-linejoin: miter; stroke-miterlimit: 4; fill: rgb(59,105,203); fill-rule: nonzero; opacity: 1;" vector-effect="non-scaling-stroke"  transform=" translate(-104.5, -236.5)" d="M 104 236 L 105 237 L 104 236 z" stroke-linecap="round" />
</g>
		<g transform="matrix(1 0 0 1 53.5 86.5)"  >
<path style="stroke: none; stroke-width: 1; stroke-dasharray: none; stroke-linecap: butt; stroke-dashoffset: 0; stroke-linejoin: miter; stroke-miterlimit: 4; fill: rgb(33,68,99); fill-rule: nonzero; opacity: 1;" vector-effect="non-scaling-stroke"  transform=" translate(-203.5, -236.5)" d="M 203 236 L 204 237 L 203 236 z" stroke-linecap="round" />
</g>
		<g transform="matrix(1 0 0 1 41.5 87.5)"  >
<path style="stroke: none; stroke-width: 1; stroke-dasharray: none; stroke-linecap: butt; stroke-dashoffset: 0; stroke-linejoin: miter; stroke-miterlimit: 4; fill: rgb(59,105,203); fill-rule: nonzero; opacity: 1;" vector-effect="non-scaling-stroke"  transform=" translate(-191.5, -237.5)" d="M 191 237 L 192 238 L 191 237 z" stroke-linecap="round" />
</g>
		<g transform="matrix(1 0 0 1 10 89.5)"  >
<path style="stroke: none; stroke-width: 1; stroke-dasharray: none; stroke-linecap: butt; stroke-dashoffset: 0; stroke-linejoin: miter; stroke-miterlimit: 4; fill: rgb(33,68,99); fill-rule: nonzero; opacity: 1;" vector-effect="non-scaling-stroke"  transform=" translate(-160, -239.5)" d="M 202 237 L 203 238 L 202 237 M 117 238 L 118 239 L 117 238 M 201 238 L 202 239 L 201 238 M 176 242 C 177.457 240.897 177.897 240.457 179 239 C 176.876 239.899 176.899 239.876 176 242 z" stroke-linecap="round" />
</g>
		<g transform="matrix(1 0 0 1 38.5 89.5)"  >
<path style="stroke: none; stroke-width: 1; stroke-dasharray: none; stroke-linecap: butt; stroke-dashoffset: 0; stroke-linejoin: miter; stroke-miterlimit: 4; fill: rgb(59,105,203); fill-rule: nonzero; opacity: 1;" vector-effect="non-scaling-stroke"  transform=" translate(-188.5, -239.5)" d="M 188 239 L 189 240 L 188 239 z" stroke-linecap="round" />
</g>
		<g transform="matrix(1 0 0 1 37.5 90.5)"  >
<path style="stroke: none; stroke-width: 1; stroke-dasharray: none; stroke-linecap: butt; stroke-dashoffset: 0; stroke-linejoin: miter; stroke-miterlimit: 4; fill: rgb(59,105,203); fill-rule: nonzero; opacity: 1;" vector-effect="non-scaling-stroke"  transform=" translate(-187.5, -240.5)" d="M 187 240 L 188 241 L 187 240 z" stroke-linecap="round" />
</g>
		<g transform="matrix(1 0 0 1 49.5 90.5)"  >
<path style="stroke: none; stroke-width: 1; stroke-dasharray: none; stroke-linecap: butt; stroke-dashoffset: 0; stroke-linejoin: miter; stroke-miterlimit: 4; fill: rgb(33,68,99); fill-rule: nonzero; opacity: 1;" vector-effect="non-scaling-stroke"  transform=" translate(-199.5, -240.5)" d="M 199 240 L 200 241 L 199 240 z" stroke-linecap="round" />
</g>
		<g transform="matrix(1 0 0 1 -1 91.5)"  >
<path style="stroke: none; stroke-width: 1; stroke-dasharray: none; stroke-linecap: butt; stroke-dashoffset: 0; stroke-linejoin: miter; stroke-miterlimit: 4; fill: rgb(59,105,203); fill-rule: nonzero; opacity: 1;" vector-effect="non-scaling-stroke"  transform=" translate(-149, -241.5)" d="M 111 241 L 112 242 L 111 241 M 186 241 L 187 242 L 186 241 z" stroke-linecap="round" />
</g>
		<g transform="matrix(1 0 0 1 48.5 91.5)"  >
<path style="stroke: none; stroke-width: 1; stroke-dasharray: none; stroke-linecap: butt; stroke-dashoffset: 0; stroke-linejoin: miter; stroke-miterlimit: 4; fill: rgb(33,68,99); fill-rule: nonzero; opacity: 1;" vector-effect="non-scaling-stroke"  transform=" translate(-198.5, -241.5)" d="M 198 241 L 199 242 L 198 241 z" stroke-linecap="round" />
</g>
		<g transform="matrix(1 0 0 1 -1 92.5)"  >
<path style="stroke: none; stroke-width: 1; stroke-dasharray: none; stroke-linecap: butt; stroke-dashoffset: 0; stroke-linejoin: miter; stroke-miterlimit: 4; fill: rgb(59,105,203); fill-rule: nonzero; opacity: 1;" vector-effect="non-scaling-stroke"  transform=" translate(-149, -242.5)" d="M 112 242 L 113 243 L 112 242 M 185 242 L 186 243 L 185 242 z" stroke-linecap="round" />
</g>
		<g transform="matrix(1 0 0 1 47.5 92.5)"  >
<path style="stroke: none; stroke-width: 1; stroke-dasharray: none; stroke-linecap: butt; stroke-dashoffset: 0; stroke-linejoin: miter; stroke-miterlimit: 4; fill: rgb(33,68,99); fill-rule: nonzero; opacity: 1;" vector-effect="non-scaling-stroke"  transform=" translate(-197.5, -242.5)" d="M 197 242 L 198 243 L 197 242 z" stroke-linecap="round" />
</g>
		<g transform="matrix(1 0 0 1 34.5 93.5)"  >
<path style="stroke: none; stroke-width: 1; stroke-dasharray: none; stroke-linecap: butt; stroke-dashoffset: 0; stroke-linejoin: miter; stroke-miterlimit: 4; fill: rgb(59,105,203); fill-rule: nonzero; opacity: 1;" vector-effect="non-scaling-stroke"  transform=" translate(-184.5, -243.5)" d="M 184 243 L 185 244 L 184 243 z" stroke-linecap="round" />
</g>
		<g transform="matrix(1 0 0 1 46.5 93.5)"  >
<path style="stroke: none; stroke-width: 1; stroke-dasharray: none; stroke-linecap: butt; stroke-dashoffset: 0; stroke-linejoin: miter; stroke-miterlimit: 4; fill: rgb(33,68,99); fill-rule: nonzero; opacity: 1;" vector-effect="non-scaling-stroke"  transform=" translate(-196.5, -243.5)" d="M 196 243 L 197 244 L 196 243 z" stroke-linecap="round" />
</g>
		<g transform="matrix(1 0 0 1 -71.6 108.5)"  >
<path style="stroke: none; stroke-width: 1; stroke-dasharray: none; stroke-linecap: butt; stroke-dashoffset: 0; stroke-linejoin: miter; stroke-miterlimit: 4; fill: rgb(68,119,23); fill-rule: nonzero; opacity: 1;" vector-effect="non-scaling-stroke"  transform=" translate(-78.4, -258.5)" d="M 81 244 C 74.4586 251.338 74.7604 264.128 65 268 L 65 273 C 72.9523 272.587 79.8271 267.831 85.9992 263.101 C 88.1557 261.449 91.7932 259.086 91.7932 255.996 C 91.7932 251.361 84.3694 246.373 81 244 z" stroke-linecap="round" />
</g>
		<g transform="matrix(1 0 0 1 -0.5 94.5)"  >
<path style="stroke: none; stroke-width: 1; stroke-dasharray: none; stroke-linecap: butt; stroke-dashoffset: 0; stroke-linejoin: miter; stroke-miterlimit: 4; fill: rgb(59,105,203); fill-rule: nonzero; opacity: 1;" vector-effect="non-scaling-stroke"  transform=" translate(-149.5, -244.5)" d="M 115 244 L 116 245 L 115 244 M 183 244 L 184 245 L 183 244 z" stroke-linecap="round" />
</g>
		<g transform="matrix(1 0 0 1 -5.5 95)"  >
<path style="stroke: none; stroke-width: 1; stroke-dasharray: none; stroke-linecap: butt; stroke-dashoffset: 0; stroke-linejoin: miter; stroke-miterlimit: 4; fill: rgb(33,68,99); fill-rule: nonzero; opacity: 1;" vector-effect="non-scaling-stroke"  transform=" translate(-144.5, -245)" d="M 195 244 L 196 245 L 195 244 M 93 245 L 94 246 L 93 245 z" stroke-linecap="round" />
</g>
		<g transform="matrix(1 0 0 1 -33.5 95.5)"  >
<path style="stroke: none; stroke-width: 1; stroke-dasharray: none; stroke-linecap: butt; stroke-dashoffset: 0; stroke-linejoin: miter; stroke-miterlimit: 4; fill: rgb(59,105,203); fill-rule: nonzero; opacity: 1;" vector-effect="non-scaling-stroke"  transform=" translate(-116.5, -245.5)" d="M 116 245 L 117 246 L 116 245 z" stroke-linecap="round" />
</g>
		<g transform="matrix(1 0 0 1 -5.5 96.5)"  >
<path style="stroke: none; stroke-width: 1; stroke-dasharray: none; stroke-linecap: butt; stroke-dashoffset: 0; stroke-linejoin: miter; stroke-miterlimit: 4; fill: rgb(33,68,99); fill-rule: nonzero; opacity: 1;" vector-effect="non-scaling-stroke"  transform=" translate(-144.5, -246.5)" d="M 194 245 L 195 246 L 194 245 M 94 246 L 95 247 L 94 246 M 129 246 L 130 247 L 129 246 M 193 246 L 194 247 L 193 246 M 95 247 L 96 248 L 95 247 M 166.667 247.333 C 166.222 247.778 167.278 247.722 167.333 247.667 C 167.778 247.222 166.722 247.278 166.667 247.333 z" stroke-linecap="round" />
</g>
		<g transform="matrix(1 0 0 1 29.5 97.5)"  >
<path style="stroke: none; stroke-width: 1; stroke-dasharray: none; stroke-linecap: butt; stroke-dashoffset: 0; stroke-linejoin: miter; stroke-miterlimit: 4; fill: rgb(59,105,203); fill-rule: nonzero; opacity: 1;" vector-effect="non-scaling-stroke"  transform=" translate(-179.5, -247.5)" d="M 179 247 L 180 248 L 179 247 z" stroke-linecap="round" />
</g>
		<g transform="matrix(1 0 0 1 -5.5 98)"  >
<path style="stroke: none; stroke-width: 1; stroke-dasharray: none; stroke-linecap: butt; stroke-dashoffset: 0; stroke-linejoin: miter; stroke-miterlimit: 4; fill: rgb(33,68,99); fill-rule: nonzero; opacity: 1;" vector-effect="non-scaling-stroke"  transform=" translate(-144.5, -248)" d="M 192 247 L 193 248 L 192 247 M 96 248 L 97 249 L 96 248 M 164.667 248.333 C 164.222 248.778 165.278 248.722 165.333 248.667 C 165.778 248.222 164.722 248.278 164.667 248.333 z" stroke-linecap="round" />
</g>
		<g transform="matrix(1 0 0 1 28.5 98.5)"  >
<path style="stroke: none; stroke-width: 1; stroke-dasharray: none; stroke-linecap: butt; stroke-dashoffset: 0; stroke-linejoin: miter; stroke-miterlimit: 4; fill: rgb(59,105,203); fill-rule: nonzero; opacity: 1;" vector-effect="non-scaling-stroke"  transform=" translate(-178.5, -248.5)" d="M 178 248 L 179 249 L 178 248 z" stroke-linecap="round" />
</g>
		<g transform="matrix(1 0 0 1 41.5 98.5)"  >
<path style="stroke: none; stroke-width: 1; stroke-dasharray: none; stroke-linecap: butt; stroke-dashoffset: 0; stroke-linejoin: miter; stroke-miterlimit: 4; fill: rgb(33,68,99); fill-rule: nonzero; opacity: 1;" vector-effect="non-scaling-stroke"  transform=" translate(-191.5, -248.5)" d="M 191 248 L 192 249 L 191 248 z" stroke-linecap="round" />
</g>
		<g transform="matrix(1 0 0 1 -27.5 99.5)"  >
<path style="stroke: none; stroke-width: 1; stroke-dasharray: none; stroke-linecap: butt; stroke-dashoffset: 0; stroke-linejoin: miter; stroke-miterlimit: 4; fill: rgb(59,105,203); fill-rule: nonzero; opacity: 1;" vector-effect="non-scaling-stroke"  transform=" translate(-122.5, -249.5)" d="M 122 249 L 123 250 L 122 249 z" stroke-linecap="round" />
</g>
		<g transform="matrix(1 0 0 1 -4.5 100.5)"  >
<path style="stroke: none; stroke-width: 1; stroke-dasharray: none; stroke-linecap: butt; stroke-dashoffset: 0; stroke-linejoin: miter; stroke-miterlimit: 4; fill: rgb(33,68,99); fill-rule: nonzero; opacity: 1;" vector-effect="non-scaling-stroke"  transform=" translate(-145.5, -250.5)" d="M 190 249 L 191 250 L 190 249 M 136.667 250.333 C 136.222 250.778 137.278 250.722 137.333 250.667 C 137.778 250.222 136.722 250.278 136.667 250.333 M 100 251 L 101 252 L 100 251 z" stroke-linecap="round" />
</g>
		<g transform="matrix(1 0 0 1 -24.5 101.5)"  >
<path style="stroke: none; stroke-width: 1; stroke-dasharray: none; stroke-linecap: butt; stroke-dashoffset: 0; stroke-linejoin: miter; stroke-miterlimit: 4; fill: rgb(59,105,203); fill-rule: nonzero; opacity: 1;" vector-effect="non-scaling-stroke"  transform=" translate(-125.5, -251.5)" d="M 125 251 L 126 252 L 125 251 z" stroke-linecap="round" />
</g>
		<g transform="matrix(1 0 0 1 29 102.5)"  >
<path style="stroke: none; stroke-width: 1; stroke-dasharray: none; stroke-linecap: butt; stroke-dashoffset: 0; stroke-linejoin: miter; stroke-miterlimit: 4; fill: rgb(59,105,203); fill-rule: nonzero; opacity: 1;" vector-effect="non-scaling-stroke"  transform=" translate(-179, -252.5)" d="M 171 252 L 172 253 L 171 252 M 186 252 L 187 253 L 186 252 z" stroke-linecap="round" />
</g>
		<g transform="matrix(1 0 0 1 8.5 106)"  >
<path style="stroke: none; stroke-width: 1; stroke-dasharray: none; stroke-linecap: butt; stroke-dashoffset: 0; stroke-linejoin: miter; stroke-miterlimit: 4; fill: rgb(59,105,203); fill-rule: nonzero; opacity: 1;" vector-effect="non-scaling-stroke"  transform=" translate(-158.5, -256)" d="M 182 255 L 183 256 L 182 255 M 134 256 L 135 257 L 134 256 M 162 256 L 163 257 L 162 256 z" stroke-linecap="round" />
</g>
		<g transform="matrix(1 0 0 1 -27 107.5)"  >
<path style="stroke: none; stroke-width: 1; stroke-dasharray: none; stroke-linecap: butt; stroke-dashoffset: 0; stroke-linejoin: miter; stroke-miterlimit: 4; fill: rgb(33,68,99); fill-rule: nonzero; opacity: 1;" vector-effect="non-scaling-stroke"  transform=" translate(-123, -257.5)" d="M 108 257 L 109 258 L 108 257 M 137 257 L 138 258 L 137 257 z" stroke-linecap="round" />
</g>
		<g transform="matrix(1 0 0 1 29.5 107.5)"  >
<path style="stroke: none; stroke-width: 1; stroke-dasharray: none; stroke-linecap: butt; stroke-dashoffset: 0; stroke-linejoin: miter; stroke-miterlimit: 4; fill: rgb(59,105,203); fill-rule: nonzero; opacity: 1;" vector-effect="non-scaling-stroke"  transform=" translate(-179.5, -257.5)" d="M 179 257 L 180 258 L 179 257 z" stroke-linecap="round" />
</g>
		<g transform="matrix(1 0 0 1 -5.5 112)"  >
<path style="stroke: none; stroke-width: 1; stroke-dasharray: none; stroke-linecap: butt; stroke-dashoffset: 0; stroke-linejoin: miter; stroke-miterlimit: 4; fill: rgb(59,105,203); fill-rule: nonzero; opacity: 1;" vector-effect="non-scaling-stroke"  transform=" translate(-144.5, -262)" d="M 171 261 L 172 262 L 171 261 M 117 262 L 118 263 L 117 262 z" stroke-linecap="round" />
</g>
		<g transform="matrix(1 0 0 1 -5.5 113.5)"  >
<path style="stroke: none; stroke-width: 1; stroke-dasharray: none; stroke-linecap: butt; stroke-dashoffset: 0; stroke-linejoin: miter; stroke-miterlimit: 4; fill: rgb(33,68,99); fill-rule: nonzero; opacity: 1;" vector-effect="non-scaling-stroke"  transform=" translate(-144.5, -263.5)" d="M 169 262 L 170 263 L 169 262 M 119 263 L 120 264 L 119 263 M 166 263 L 167 264 L 166 263 M 122 264 L 123 265 L 122 264 z" stroke-linecap="round" />
</g>
		<g transform="matrix(1 0 0 1 -24.32 129)"  >
<path style="stroke: none; stroke-width: 1; stroke-dasharray: none; stroke-linecap: butt; stroke-dashoffset: 0; stroke-linejoin: miter; stroke-miterlimit: 4; fill: rgb(78,143,21); fill-rule: nonzero; opacity: 1;" vector-effect="non-scaling-stroke"  transform=" translate(-125.68, -279)" d="M 116 270 C 118.696 278.443 126.644 285.333 135 288 C 135 284.434 136.306 277.552 133.972 274.603 C 132.586 272.852 129.982 273.083 127.999 272.831 C 123.907 272.311 120.007 270.919 116 270 z" stroke-linecap="round" />
</g>
		<g transform="matrix(1 0 0 1 -14.56 129)"  >
<path style="stroke: none; stroke-width: 1; stroke-dasharray: none; stroke-linecap: butt; stroke-dashoffset: 0; stroke-linejoin: miter; stroke-miterlimit: 4; fill: rgb(68,119,23); fill-rule: nonzero; opacity: 1;" vector-effect="non-scaling-stroke"  transform=" translate(-135.44, -279)" d="M 135 275 L 135 283 C 136.161 280.23 136.161 277.77 135 275 z" stroke-linecap="round" />
</g>
		<g transform="matrix(1 0 0 1 -37.5 127.5)"  >
<path style="stroke: none; stroke-width: 1; stroke-dasharray: none; stroke-linecap: butt; stroke-dashoffset: 0; stroke-linejoin: miter; stroke-miterlimit: 4; fill: rgb(2,2,5); fill-rule: nonzero; opacity: 1;" vector-effect="non-scaling-stroke"  transform=" translate(-112.5, -277.5)" d="M 112 277 L 113 278 L 112 277 z" stroke-linecap="round" />
</g>
</g>
</g>
</svg>